<?xml version="1.0" encoding="UTF-8"?>
<svg id="Layer_2" data-name="Layer 2" xmlns="http://www.w3.org/2000/svg" viewBox="0 0 365.07 111.92">
  <defs>
    <style>
      .cls-1 {
        fill: #ffffff;
        fill-rule: evenodd;
      }
    </style>
  </defs>
  <g id="_ae_pi_1" data-name="Layer 1">
    <path class="cls-1" d="M173.24,48.09c-2.5-4.95-6.11-8.74-10.84-11.32-4.75-2.6-10.46-3.89-17.1-3.89s-12.35,1.29-17.1,3.89c-4.72,2.58-8.36,6.37-10.84,11.32-2.5,4.95-3.74,10.91-3.74,17.89v12.51c0,7.05,1.24,13.09,3.74,18.09,2.48,5,6.11,8.82,10.84,11.44,4.75,2.6,10.43,3.92,17.1,3.92s12.35-1.31,17.1-3.92c4.72-2.63,8.34-6.42,10.84-11.37,2.48-4.95,3.74-10.94,3.74-17.94v-12.73c0-6.97-1.26-12.93-3.74-17.89ZM161.88,78.7c0,5.96-1.44,10.59-4.32,13.89-2.91,3.31-6.97,4.98-12.25,4.98s-9.37-1.67-12.25-4.98c-2.88-3.31-4.32-7.93-4.32-13.89v-12.73c0-5.99,1.44-10.59,4.32-13.84s6.97-4.9,12.25-4.9,9.35,1.64,12.25,4.9c2.88,3.26,4.32,7.86,4.32,13.84v12.73Z"/>
    <path class="cls-1" d="M242.09,46.01c-2.35-4.27-5.81-7.53-10.36-9.78-4.55-2.25-9.98-3.36-16.35-3.36-5.84,0-11.12.99-15.89,2.93-4.75,1.95-8.59,4.67-11.49,8.16l11.01,7.55c2.27-1.67,4.88-2.98,7.81-3.92,2.93-.93,5.94-1.41,8.99-1.41,4.95,0,8.74,1.41,11.44,4.19,2.68,2.78,4.04,6.69,4.04,11.72v3.26h-21.17c-8.69,0-15.18,1.89-19.48,5.71-4.29,3.79-6.44,9.5-6.44,17.1,0,7.98,2.35,13.95,7.05,17.86,4.67,3.92,11.75,5.89,21.22,5.89,3.21,0,6.11-.33,8.67-1.01,2.58-.66,4.83-1.67,6.77-2.98,1.25-.86,2.38-1.87,3.39-3.04v5.92h14.35v-49.36c0-6.01-1.19-11.17-3.56-15.44ZM231.3,92.02c0,2.6-1.44,4.55-4.27,5.76-2.83,1.24-7.15,1.87-12.91,1.87-5.28,0-9.22-.93-11.8-2.83-2.6-1.87-3.89-4.75-3.89-8.64,0-3.61.96-6.29,2.91-8.03,1.97-1.77,4.9-2.63,8.87-2.63h21.09v14.5Z"/>
    <path class="cls-1" d="M304.08,64.25c0-5.43-1.34-9.62-3.99-12.58-2.68-2.96-6.44-4.45-11.32-4.45s-8.74,1.31-11.44,3.94c-2.68,2.6-4.04,6.29-4.04,11.01v48.63h-15.08V33.99h15.08v10.69c2.12-3.34,4.7-6.03,7.76-8.04,3.81-2.5,8.03-3.76,12.68-3.76,5.38,0,9.98,1.21,13.77,3.66,3.79,2.45,6.69,6.01,8.69,10.69.12.29.24.57.35.87,2.36-4.7,5.43-8.39,9.2-11.02,3.97-2.8,8.36-4.19,13.14-4.19,5.53,0,10.26,1.21,14.17,3.66,3.92,2.45,6.92,6.01,8.97,10.69,2.05,4.7,3.06,10.36,3.06,16.95v46.63h-15.08v-46.56c0-5.43-1.41-9.62-4.22-12.58-2.83-2.96-6.77-4.45-11.85-4.45-4.7,0-8.31,1.44-10.89,4.29-2.55,2.88-3.84,6.92-3.84,12.15h0c0,.16,0,.33,0,.51v46.63h-15.11v-46.56h0Z"/>
    <path class="cls-1" d="M73.39,68.51l.19-.1-.47-.17c17.32-1.71,30.85-16.32,30.85-34.09S90.04,1.35,72.36,0H11.01c-2.1.11-3.93.59-5.48,1.45-1.79.98-3.17,2.42-4.11,4.29-.95,1.88-1.42,4.14-1.42,6.78v98.5h17.58c-7.47-22.52.36-49.81,18.56-62.49,6.39-4.2,14.33-3.61,19.26,2.46-5.51,7.78-7.8,15.18-7.85,22.1-.11,15.6,6.76,30.02,22.63,37.93h45.72l-42.52-42.52ZM54.18,21.87l12.86,3.01-6.24,4.97-11.94-7.47c1.9-.77,3.68-.9,5.32-.51ZM72.59,51.76l-5.87-16.17-6.84,5.15c.23,3.16,1.46,6.63-1.06,8.08-1.04-2.1-2.22-3.45-3.52-5.27-2.85,1.24-3.9.7-1.92-2.38-1.85-2.03-4.09-4.05-4.38-4.53,2.9-1.98,5.49.26,8.06.66l21.03-19,.1-.08c.24-.24.5-.48.79-.7,2.46-1.96,5.43-2.32,6.65-.8,1.21,1.52.2,4.34-2.26,6.3l-.07.06c-.13.11-.26.22-.39.32l-9.07,6.83c-.06.42.03,1.1.06,2.37.08,3.37.19,6.73.28,10.07.08,2.85.44,7.95-1.58,9.08Z"/>
    <path class="cls-1" d="M48.16,49.9l.81-.68c-.66-.78-1.6-.68-2.43.02-.85.7-1.71,1.48-2.56,2.32l1.62.94c.81-.87,1.67-1.74,2.57-2.6h0Z"/>
    <path class="cls-1" d="M43.93,54.39l-1.71-1c-4.13,4.51-7.86,10.19-9.63,15.16l3.42.93c1.61-6,4.25-10.73,7.92-15.09h0Z"/>
    <path class="cls-1" d="M35.07,74.04l-3.9-.79c-2.01,8.24-1.88,17.04.49,25.2l7.41-.42c-3.56-7.43-5.17-15.72-4-24h0Z"/>
    <path class="cls-1" d="M41.92,103.16l-8.42.46c1.06,2.5,2.36,4.91,3.89,7.2h10.51c-2.23-2.35-4.24-4.92-5.98-7.65Z"/>
  </g>
</svg>
