<?xml version="1.0" encoding="UTF-8"?>
<svg id="Layer_2" data-name="Layer 2" xmlns="http://www.w3.org/2000/svg" viewBox="0 0 115.91 111.03">
  <defs>
    <style>
      .cls-1 {
        fill: #ffffff;
        fill-rule: evenodd;
      }
    </style>
  </defs>
  <g id="_ae_pi_1" data-name="Layer 1">
    <path class="cls-1" d="M73.39,68.51l.19-.1-.47-.17c17.32-1.71,30.85-16.32,30.85-34.09S90.04,1.35,72.36,0H11.01c-2.1.11-3.93.59-5.48,1.45-1.79.98-3.17,2.42-4.11,4.29-.95,1.88-1.42,4.14-1.42,6.78v98.5h17.58c-7.47-22.52.36-49.81,18.56-62.49,6.39-4.2,14.33-3.61,19.26,2.46-5.51,7.78-7.8,15.18-7.85,22.1-.11,15.6,6.76,30.02,22.63,37.93h45.72l-42.52-42.52ZM54.18,21.87l12.86,3.01-6.24,4.97-11.94-7.47c1.9-.77,3.68-.9,5.32-.51ZM72.59,51.76l-5.87-16.17-6.84,5.15c.23,3.16,1.46,6.63-1.06,8.08-1.04-2.1-2.22-3.45-3.52-5.27-2.85,1.24-3.9.7-1.92-2.38-1.85-2.03-4.09-4.05-4.38-4.53,2.9-1.98,5.49.26,8.06.66l21.03-19,.1-.08c.24-.24.5-.48.79-.7,2.46-1.96,5.43-2.32,6.65-.8,1.21,1.52.2,4.34-2.26,6.3l-.07.06c-.13.11-.26.22-.39.32l-9.07,6.83c-.06.42.03,1.1.06,2.37.08,3.37.19,6.73.28,10.07.08,2.85.44,7.95-1.58,9.08Z"/>
    <path class="cls-1" d="M48.16,49.9l.81-.68c-.66-.78-1.6-.68-2.43.02-.85.7-1.71,1.48-2.56,2.32l1.62.94c.81-.87,1.67-1.74,2.57-2.6h0Z"/>
    <path class="cls-1" d="M43.93,54.39l-1.71-1c-4.13,4.51-7.86,10.19-9.63,15.16l3.42.93c1.61-6,4.25-10.73,7.92-15.09h0Z"/>
    <path class="cls-1" d="M35.07,74.04l-3.9-.79c-2.01,8.24-1.88,17.04.49,25.2l7.41-.42c-3.56-7.43-5.17-15.72-4-24h0Z"/>
    <path class="cls-1" d="M41.92,103.16l-8.42.46c1.06,2.5,2.36,4.91,3.89,7.2h10.51c-2.23-2.35-4.24-4.92-5.98-7.65Z"/>
  </g>
</svg>
